%TF.GenerationSoftware,KiCad,Pcbnew,9.0.5*%
%TF.CreationDate,2025-12-09T22:24:05+01:00*%
%TF.ProjectId,hardware,68617264-7761-4726-952e-6b696361645f,rev?*%
%TF.SameCoordinates,Original*%
%TF.FileFunction,Copper,L2,Bot*%
%TF.FilePolarity,Positive*%
%FSLAX46Y46*%
G04 Gerber Fmt 4.6, Leading zero omitted, Abs format (unit mm)*
G04 Created by KiCad (PCBNEW 9.0.5) date 2025-12-09 22:24:05*
%MOMM*%
%LPD*%
G01*
G04 APERTURE LIST*
G04 Aperture macros list*
%AMRoundRect*
0 Rectangle with rounded corners*
0 $1 Rounding radius*
0 $2 $3 $4 $5 $6 $7 $8 $9 X,Y pos of 4 corners*
0 Add a 4 corners polygon primitive as box body*
4,1,4,$2,$3,$4,$5,$6,$7,$8,$9,$2,$3,0*
0 Add four circle primitives for the rounded corners*
1,1,$1+$1,$2,$3*
1,1,$1+$1,$4,$5*
1,1,$1+$1,$6,$7*
1,1,$1+$1,$8,$9*
0 Add four rect primitives between the rounded corners*
20,1,$1+$1,$2,$3,$4,$5,0*
20,1,$1+$1,$4,$5,$6,$7,0*
20,1,$1+$1,$6,$7,$8,$9,0*
20,1,$1+$1,$8,$9,$2,$3,0*%
G04 Aperture macros list end*
%TA.AperFunction,NonConductor*%
%ADD10C,0.200000*%
%TD*%
%TA.AperFunction,ComponentPad*%
%ADD11R,1.400000X1.400000*%
%TD*%
%TA.AperFunction,ComponentPad*%
%ADD12C,1.400000*%
%TD*%
%TA.AperFunction,ComponentPad*%
%ADD13RoundRect,0.250000X0.550000X0.550000X-0.550000X0.550000X-0.550000X-0.550000X0.550000X-0.550000X0*%
%TD*%
%TA.AperFunction,ComponentPad*%
%ADD14C,1.600000*%
%TD*%
%TA.AperFunction,ComponentPad*%
%ADD15C,1.150000*%
%TD*%
%TA.AperFunction,SMDPad,CuDef*%
%ADD16R,2.900000X5.400000*%
%TD*%
%TA.AperFunction,SMDPad,CuDef*%
%ADD17RoundRect,0.200000X0.200000X0.275000X-0.200000X0.275000X-0.200000X-0.275000X0.200000X-0.275000X0*%
%TD*%
%TA.AperFunction,SMDPad,CuDef*%
%ADD18RoundRect,0.225000X-0.225000X-0.250000X0.225000X-0.250000X0.225000X0.250000X-0.225000X0.250000X0*%
%TD*%
%TA.AperFunction,SMDPad,CuDef*%
%ADD19R,0.900000X1.400000*%
%TD*%
%TA.AperFunction,ComponentPad*%
%ADD20RoundRect,0.249999X0.850001X-0.850001X0.850001X0.850001X-0.850001X0.850001X-0.850001X-0.850001X0*%
%TD*%
%TA.AperFunction,ComponentPad*%
%ADD21C,2.200000*%
%TD*%
%TA.AperFunction,SMDPad,CuDef*%
%ADD22RoundRect,0.375000X-0.875000X0.875000X-0.875000X-0.875000X0.875000X-0.875000X0.875000X0.875000X0*%
%TD*%
%TA.AperFunction,SMDPad,CuDef*%
%ADD23RoundRect,0.450000X-0.800000X0.800000X-0.800000X-0.800000X0.800000X-0.800000X0.800000X0.800000X0*%
%TD*%
%TA.AperFunction,SMDPad,CuDef*%
%ADD24RoundRect,0.200000X-0.200000X-0.275000X0.200000X-0.275000X0.200000X0.275000X-0.200000X0.275000X0*%
%TD*%
%TA.AperFunction,SMDPad,CuDef*%
%ADD25RoundRect,0.200000X-0.275000X0.200000X-0.275000X-0.200000X0.275000X-0.200000X0.275000X0.200000X0*%
%TD*%
%TA.AperFunction,SMDPad,CuDef*%
%ADD26RoundRect,0.225000X0.250000X-0.225000X0.250000X0.225000X-0.250000X0.225000X-0.250000X-0.225000X0*%
%TD*%
%TA.AperFunction,ComponentPad*%
%ADD27RoundRect,0.249999X-0.850001X0.850001X-0.850001X-0.850001X0.850001X-0.850001X0.850001X0.850001X0*%
%TD*%
%TA.AperFunction,ComponentPad*%
%ADD28O,3.048000X1.524000*%
%TD*%
%TA.AperFunction,SMDPad,CuDef*%
%ADD29R,2.250000X2.150000*%
%TD*%
%TA.AperFunction,Conductor*%
%ADD30C,0.800000*%
%TD*%
%TA.AperFunction,Conductor*%
%ADD31C,0.500000*%
%TD*%
%TA.AperFunction,Conductor*%
%ADD32C,0.400000*%
%TD*%
G04 APERTURE END LIST*
D10*
X55000000Y-99500000D02*
X128000000Y-99500000D01*
X128000000Y-165500000D01*
X55000000Y-165500000D01*
X55000000Y-99500000D01*
D11*
%TO.P,J17,1,Pin_1*%
%TO.N,Net-(J17-Pin_1)*%
X93450000Y-129400000D03*
D12*
%TO.P,J17,2,Pin_2*%
%TO.N,Net-(J17-Pin_2)*%
X93450000Y-125400000D03*
%TD*%
D13*
%TO.P,D8,1,K*%
%TO.N,Net-(D8-K)*%
X109810000Y-126000000D03*
D14*
%TO.P,D8,2,A*%
%TO.N,Net-(D8-A)*%
X102190000Y-126000000D03*
%TD*%
D15*
%TO.P,C14,1*%
%TO.N,BAT*%
X98500000Y-120000000D03*
%TO.P,C14,2*%
%TO.N,GND*%
X101000000Y-120000000D03*
%TD*%
D16*
%TO.P,L2,1*%
%TO.N,Net-(D6-A)*%
X98500000Y-156500000D03*
%TO.P,L2,2*%
%TO.N,BAT*%
X88600000Y-156500000D03*
%TD*%
D11*
%TO.P,IC1,1,GROUND*%
%TO.N,GND*%
X110500000Y-134960000D03*
D12*
%TO.P,IC1,2,~{TRIGGER}*%
%TO.N,Net-(D8-K)*%
X110500000Y-137500000D03*
%TO.P,IC1,3,OUTPUT*%
%TO.N,PWM*%
X110500000Y-140040000D03*
%TO.P,IC1,4,~{RESET}*%
%TO.N,BAT*%
X110500000Y-142580000D03*
X102560000Y-140040000D03*
%TO.P,IC1,5,CONTROL_VOLTAGE*%
%TO.N,Net-(IC1-CONTROL_VOLTAGE)*%
X102560000Y-142580000D03*
%TO.P,IC1,7,DISCHARGE*%
%TO.N,Net-(D8-A)*%
X102560000Y-137500000D03*
%TO.P,IC1,8,V+*%
%TO.N,BAT*%
X102560000Y-134960000D03*
%TD*%
D11*
%TO.P,J16,1,Pin_1*%
%TO.N,Net-(D5-A)*%
X64050000Y-117600000D03*
D12*
%TO.P,J16,2,Pin_2*%
%TO.N,Net-(J15-Pin_2)*%
X64050000Y-121600000D03*
%TD*%
D17*
%TO.P,R17,1*%
%TO.N,Net-(D8-K)*%
X106150000Y-130500000D03*
%TO.P,R17,2*%
%TO.N,Net-(D8-A)*%
X104500000Y-130500000D03*
%TD*%
D11*
%TO.P,C8,1,+*%
%TO.N,+5V*%
X106000000Y-107000000D03*
D12*
%TO.P,C8,2,-*%
%TO.N,GND*%
X106000000Y-112000000D03*
%TD*%
D18*
%TO.P,C9,1*%
%TO.N,Net-(IC1-CONTROL_VOLTAGE)*%
X105450000Y-146000000D03*
%TO.P,C9,2*%
%TO.N,GND*%
X107000000Y-146000000D03*
%TD*%
D19*
%TO.P,LED1,1,K*%
%TO.N,Net-(LED1-K)*%
X81500000Y-106000000D03*
%TO.P,LED1,2,A*%
%TO.N,+5V*%
X83400000Y-106000000D03*
%TD*%
D11*
%TO.P,J15,1,Pin_1*%
%TO.N,Net-(D4-A)*%
X64050000Y-106100000D03*
D12*
%TO.P,J15,2,Pin_2*%
%TO.N,Net-(J15-Pin_2)*%
X64050000Y-110100000D03*
%TD*%
D11*
%TO.P,J18,1,Pin_1*%
%TO.N,+5V*%
X83700000Y-111950000D03*
D12*
%TO.P,J18,2,Pin_2*%
%TO.N,GND*%
X87700000Y-111950000D03*
%TD*%
D20*
%TO.P,D5,1,K*%
%TO.N,Net-(D4-K)*%
X71000000Y-120580000D03*
D21*
%TO.P,D5,2,A*%
%TO.N,Net-(D5-A)*%
X71000000Y-110420000D03*
%TD*%
D22*
%TO.P,U4,1,+*%
%TO.N,Net-(D4-K)*%
X62400000Y-133100000D03*
%TO.P,U4,2,-*%
%TO.N,Net-(J15-Pin_2)*%
X62400000Y-147500000D03*
%TO.P,U4,3,OUT_+*%
%TO.N,BAT*%
X85500000Y-147500000D03*
%TO.P,U4,4,B_+*%
%TO.N,Net-(J17-Pin_1)*%
X85500000Y-144500000D03*
%TO.P,U4,5,B_-*%
%TO.N,Net-(J17-Pin_2)*%
X85500000Y-136100000D03*
D23*
%TO.P,U4,6,OUT_-*%
%TO.N,GND*%
X85500000Y-133100000D03*
%TD*%
D24*
%TO.P,R18,1*%
%TO.N,Net-(D8-A)*%
X105350000Y-150000000D03*
%TO.P,R18,2*%
%TO.N,BAT*%
X107000000Y-150000000D03*
%TD*%
D20*
%TO.P,D4,1,K*%
%TO.N,Net-(D4-K)*%
X78000000Y-120080000D03*
D21*
%TO.P,D4,2,A*%
%TO.N,Net-(D4-A)*%
X78000000Y-109920000D03*
%TD*%
D25*
%TO.P,R15,1*%
%TO.N,Net-(LED1-K)*%
X81500000Y-126850000D03*
%TO.P,R15,2*%
%TO.N,GND*%
X81500000Y-128500000D03*
%TD*%
D26*
%TO.P,C12,1*%
%TO.N,Net-(D8-K)*%
X115000000Y-138000000D03*
%TO.P,C12,2*%
%TO.N,GND*%
X115000000Y-136450000D03*
%TD*%
D27*
%TO.P,D6,1,K*%
%TO.N,+5V*%
X119500000Y-107000000D03*
D21*
%TO.P,D6,2,A*%
%TO.N,Net-(D6-A)*%
X119500000Y-117160000D03*
%TD*%
D28*
%TO.P,Q4,D*%
%TO.N,Net-(D6-A)*%
X120000000Y-135540000D03*
%TO.P,Q4,G*%
%TO.N,PWM*%
X120000000Y-138080000D03*
%TO.P,Q4,S*%
%TO.N,GND*%
X120000000Y-133000000D03*
%TD*%
D29*
%TO.P,Z1,1,K*%
%TO.N,+5V*%
X92600000Y-106000000D03*
%TO.P,Z1,2,A*%
%TO.N,Net-(Z1-A)*%
X97000000Y-106000000D03*
%TD*%
D17*
%TO.P,R16,1*%
%TO.N,Net-(Z1-A)*%
X96650000Y-112000000D03*
%TO.P,R16,2*%
%TO.N,GND*%
X95000000Y-112000000D03*
%TD*%
D30*
%TO.N,GND*%
X94250000Y-112000000D02*
X95000000Y-112000000D01*
X91000000Y-115250000D02*
X87700000Y-111950000D01*
X101000000Y-117000000D02*
X101000000Y-120000000D01*
X81500000Y-129100000D02*
X81500000Y-128500000D01*
X82242500Y-128500000D02*
X91000000Y-119742500D01*
X118450000Y-133000000D02*
X120000000Y-133000000D01*
X91000000Y-119742500D02*
X91000000Y-115250000D01*
X95000000Y-112475000D02*
X97525000Y-115000000D01*
X103000000Y-115000000D02*
X106000000Y-112000000D01*
X114000000Y-131460000D02*
X110500000Y-134960000D01*
X113510000Y-134960000D02*
X115000000Y-136450000D01*
X114000000Y-120000000D02*
X114000000Y-131460000D01*
X81500000Y-128500000D02*
X82242500Y-128500000D01*
X85500000Y-133100000D02*
X81500000Y-129100000D01*
X106000000Y-112000000D02*
X114000000Y-120000000D01*
X99000000Y-115000000D02*
X101000000Y-117000000D01*
X110500000Y-134960000D02*
X113510000Y-134960000D01*
X97525000Y-115000000D02*
X99000000Y-115000000D01*
X115000000Y-136450000D02*
X118450000Y-133000000D01*
X91000000Y-115250000D02*
X94250000Y-112000000D01*
X99000000Y-115000000D02*
X103000000Y-115000000D01*
X95000000Y-112000000D02*
X95000000Y-112475000D01*
D31*
%TO.N,+5V*%
X101701000Y-102701000D02*
X106000000Y-107000000D01*
X106000000Y-107000000D02*
X119500000Y-107000000D01*
X83400000Y-106000000D02*
X92600000Y-106000000D01*
X92600000Y-106000000D02*
X95899000Y-102701000D01*
X83400000Y-106000000D02*
X83400000Y-111650000D01*
X95899000Y-102701000D02*
X101701000Y-102701000D01*
X83400000Y-111650000D02*
X83700000Y-111950000D01*
%TO.N,BAT*%
X94040000Y-134960000D02*
X92500000Y-136500000D01*
X103000000Y-151500000D02*
X106000000Y-151500000D01*
X102560000Y-134960000D02*
X94040000Y-134960000D01*
X109000000Y-150000000D02*
X110500000Y-148500000D01*
X85500000Y-153400000D02*
X88600000Y-156500000D01*
X86000000Y-147500000D02*
X92500000Y-141000000D01*
D32*
X85500000Y-147500000D02*
X86000000Y-147500000D01*
D31*
X107000000Y-150000000D02*
X109000000Y-150000000D01*
X99000000Y-141000000D02*
X99000000Y-141525000D01*
X99000000Y-141525000D02*
X107000000Y-149525000D01*
X107000000Y-150500000D02*
X107000000Y-150000000D01*
X110500000Y-148500000D02*
X110500000Y-142580000D01*
X102560000Y-134960000D02*
X98500000Y-130900000D01*
X107000000Y-149525000D02*
X107000000Y-150000000D01*
X102560000Y-140040000D02*
X99960000Y-140040000D01*
X92500000Y-141000000D02*
X103000000Y-151500000D01*
X92500000Y-136500000D02*
X92500000Y-141000000D01*
X85500000Y-147500000D02*
X85500000Y-153400000D01*
X98500000Y-130900000D02*
X98500000Y-120000000D01*
X99960000Y-140040000D02*
X99000000Y-141000000D01*
X106000000Y-151500000D02*
X107000000Y-150500000D01*
%TO.N,PWM*%
X118040000Y-140040000D02*
X120000000Y-138080000D01*
X110500000Y-140040000D02*
X118040000Y-140040000D01*
%TO.N,Net-(IC1-CONTROL_VOLTAGE)*%
X105450000Y-143450000D02*
X104580000Y-142580000D01*
X104580000Y-142580000D02*
X102560000Y-142580000D01*
X105450000Y-146000000D02*
X105450000Y-143450000D01*
%TO.N,Net-(D4-K)*%
X62400000Y-129180000D02*
X71000000Y-120580000D01*
X78000000Y-120080000D02*
X77500000Y-120580000D01*
X62400000Y-133100000D02*
X62400000Y-129180000D01*
X71000000Y-120580000D02*
X77500000Y-120580000D01*
%TO.N,Net-(D4-A)*%
X74180000Y-106100000D02*
X78000000Y-109920000D01*
X64050000Y-106100000D02*
X74180000Y-106100000D01*
%TO.N,Net-(D5-A)*%
X64050000Y-117600000D02*
X64050000Y-117370000D01*
X64050000Y-117370000D02*
X71000000Y-110420000D01*
%TO.N,Net-(D6-A)*%
X119500000Y-117160000D02*
X124000000Y-121660000D01*
X109000000Y-156500000D02*
X98500000Y-156500000D01*
X124000000Y-141500000D02*
X109000000Y-156500000D01*
X120762000Y-135540000D02*
X124000000Y-138778000D01*
X120000000Y-135540000D02*
X120361705Y-135540000D01*
X124000000Y-138778000D02*
X124000000Y-141500000D01*
X120000000Y-135540000D02*
X120762000Y-135540000D01*
X120361705Y-135540000D02*
X124000000Y-131901705D01*
X124000000Y-121660000D02*
X124000000Y-131901705D01*
%TO.N,Net-(J15-Pin_2)*%
X61000000Y-118550000D02*
X61000000Y-113150000D01*
X61000000Y-113150000D02*
X64050000Y-110100000D01*
X58500000Y-127150000D02*
X64050000Y-121600000D01*
X58500000Y-143600000D02*
X58500000Y-127150000D01*
X62400000Y-147500000D02*
X58500000Y-143600000D01*
X64050000Y-121600000D02*
X61000000Y-118550000D01*
%TO.N,Net-(J17-Pin_2)*%
X88500000Y-134350000D02*
X88500000Y-129000000D01*
X92100000Y-125400000D02*
X93450000Y-125400000D01*
X85500000Y-136100000D02*
X86750000Y-136100000D01*
X86750000Y-136100000D02*
X88500000Y-134350000D01*
X88500000Y-129000000D02*
X92100000Y-125400000D01*
%TO.N,Net-(J17-Pin_1)*%
X86000000Y-144500000D02*
X90500000Y-140000000D01*
X90500000Y-131000000D02*
X92100000Y-129400000D01*
X85500000Y-144500000D02*
X86000000Y-144500000D01*
X92100000Y-129400000D02*
X93450000Y-129400000D01*
X90500000Y-140000000D02*
X90500000Y-131000000D01*
%TO.N,Net-(LED1-K)*%
X81500000Y-126850000D02*
X81500000Y-106000000D01*
%TO.N,Net-(Z1-A)*%
X96650000Y-106350000D02*
X97000000Y-106000000D01*
X96650000Y-112000000D02*
X96650000Y-106350000D01*
%TO.N,Net-(D8-K)*%
X106150000Y-130500000D02*
X106150000Y-129660000D01*
X106150000Y-130500000D02*
X106150000Y-133150000D01*
X106150000Y-133150000D02*
X110500000Y-137500000D01*
X115000000Y-138000000D02*
X111000000Y-138000000D01*
X111000000Y-138000000D02*
X110500000Y-137500000D01*
X106150000Y-129660000D02*
X109810000Y-126000000D01*
%TO.N,Net-(D8-A)*%
X104500000Y-150000000D02*
X96000000Y-141500000D01*
X105350000Y-150000000D02*
X104500000Y-150000000D01*
X96000000Y-138500000D02*
X97000000Y-137500000D01*
X104500000Y-130500000D02*
X104500000Y-128310000D01*
X97000000Y-137500000D02*
X102560000Y-137500000D01*
X104500000Y-128310000D02*
X102190000Y-126000000D01*
X104500000Y-135560000D02*
X102560000Y-137500000D01*
X96000000Y-141500000D02*
X96000000Y-138500000D01*
X104500000Y-130500000D02*
X104500000Y-135560000D01*
%TD*%
M02*
